<?xml version="1.0" encoding="UTF-8"?>
<svg version="1.1" xmlns="http://www.w3.org/2000/svg" width="96" height="96">
<path d="M0 0 C3.51308308 2.18897987 5.56025167 4.57846196 7.3125 8.375 C7.61171147 11.13771927 7.50512617 13.58192051 7.3125 16.375 C5.39453125 16.1484375 5.39453125 16.1484375 3.3125 15.375 C2.51171875 13.4140625 2.51171875 13.4140625 2 11 C0.89780197 7.35114442 0.63379322 6.60058885 -2.625 4.3125 C-9.71658162 2.14313431 -17.24186686 2.32559846 -24 5.375 C-32.94636785 10.47285006 -37.5696632 18.44505697 -40.9375 27.875 C-43.87291137 41.25624463 -41.51141112 53.88962484 -34.87109375 65.66015625 C-33.78641585 67.5264086 -33.78641585 67.5264086 -31.6875 68.375 C-31.31625 67.4159375 -31.31625 67.4159375 -30.9375 66.4375 C-29.6875 64.375 -29.6875 64.375 -27.8125 63.5 C-24.99934253 63.33452015 -23.87764894 63.56246295 -21.6875 65.375 C-20.75 68.8125 -20.75 68.8125 -20.6875 72.375 C-22.125 74.3125 -22.125 74.3125 -23.6875 75.375 C-18.23511526 78.71895025 -11.83346607 78.00023897 -5.6875 77.375 C2.79805262 74.98698929 9.17635392 68.86582625 13.50390625 61.2890625 C14.70338655 58.44971299 14.76505975 56.41361548 14.3125 53.375 C11.50907892 50.8189396 9.91498631 50.375 6.125 50.375 C4.7328125 50.87 4.7328125 50.87 3.3125 51.375 C2.22507306 53.58933941 2.22507306 53.58933941 1.3125 56.375 C-3.41233221 62.73741611 -3.41233221 62.73741611 -6.6875 64.375 C-11.6127115 64.91535594 -15.55691718 64.91935469 -20.0625 62.75 C-25.66629301 57.67990156 -28.3554557 52.10084589 -29.0234375 44.60546875 C-29.05317758 43.25807778 -29.06570694 41.91021534 -29.0625 40.5625 C-29.06088867 39.85762451 -29.05927734 39.15274902 -29.05761719 38.42651367 C-28.86885774 30.38480593 -26.30431565 24.16734113 -20.6875 18.375 C-16.21025873 15.68098545 -11.77362569 15.48159734 -6.6875 16.375 C-1.66273217 19.12959862 1.40691698 23.56961269 4.3125 28.375 C5.29517859 29.58061184 5.29517859 29.58061184 7.16015625 29.47265625 C9.2109375 29.44010417 11.26171875 29.40755208 13.3125 29.375 C14.41323089 25.12932371 14.98160815 22.7352528 13.0078125 18.72265625 C11.89802741 16.98126535 10.7504118 15.26328085 9.5625 13.57421875 C9.15 12.84847656 8.7375 12.12273438 8.3125 11.375 C8.6425 10.385 8.9725 9.395 9.3125 8.375 C13.80307919 9.87185973 15.9777467 13.47795824 18.3125 17.375 C19.82937471 21.92562413 20.03145824 25.75734396 18.0625 30.1875 C15.08332002 33.91147497 13.19397674 34.27547843 8.4375 34.8125 C3.7603069 34.68209499 1.53817763 32.74729934 -1.6875 29.375 C-3.04761609 27.39311655 -4.38541204 25.39548131 -5.6875 23.375 C-9.43797482 20.87468346 -11.24606266 20.83896446 -15.6875 21.375 C-20.26092086 24.70112426 -22.52612369 28.91022931 -23.6875 34.375 C-24.55280251 43.18212004 -23.85052361 50.15763519 -18.4375 57.375 C-15.76923123 59.63257558 -15.76923123 59.63257558 -12.1875 59.9375 C-7.99789053 59.26416991 -6.60052098 58.44133788 -3.6875 55.375 C-2.83197674 54.0136957 -1.99982641 52.63751405 -1.1875 51.25 C0.35292838 48.68102472 1.14568114 47.48474925 3.6875 45.8125 C8.56756481 44.99915587 12.07102961 45.53835691 16.1875 48.3125 C18.96494476 51.00825521 19.53048494 52.66583218 19.75 56.4375 C19.68212559 63.46250132 15.38640186 67.96478973 11 73.0625 C0.78123478 81.855391 -7.50075155 83.32810162 -20.6875 82.375 C-24.07691515 81.44843184 -25.78231802 80.46673102 -28.6875 78.375 C-28.97882812 77.70984375 -29.27015625 77.0446875 -29.5703125 76.359375 C-31.09671848 73.64813641 -32.84125043 73.49209945 -35.6875 72.375 C-44.18868329 63.66172897 -47.03862925 52.20526263 -47.1875 40.375 C-47.0204943 27.10361385 -43.12868108 16.33173635 -33.99609375 6.56640625 C-24.97418287 -1.8275294 -11.65598846 -5.19499111 0 0 Z M-27.6875 68.375 C-27.6875 69.365 -27.6875 70.355 -27.6875 71.375 C-26.6975 71.045 -25.7075 70.715 -24.6875 70.375 C-24.6875 69.715 -24.6875 69.055 -24.6875 68.375 C-25.6775 68.375 -26.6675 68.375 -27.6875 68.375 Z " fill="#fff" transform="translate(61.6875,7.625)"/>
</svg>
