<?xml version="1.0" encoding="UTF-8"?>
<svg version="1.1" xmlns="http://www.w3.org/2000/svg" width="100" height="100">
<path d="M0 0 C4.07686847 1.69676592 7.86037443 3.80486733 11.6875 6 C12.74590088 6.59143799 13.80430176 7.18287598 14.89477539 7.79223633 C17.94313445 9.50613465 20.97490431 11.24542368 24 13 C25.16885742 13.67748291 25.16885742 13.67748291 26.36132812 14.36865234 C36.71237544 20.42475088 36.71237544 20.42475088 38 23 C38.10956812 24.45915885 38.1590127 25.92307426 38.17700195 27.38623047 C38.19625481 28.74806961 38.19625481 28.74806961 38.21589661 30.13742065 C38.22328354 31.12074371 38.23067047 32.10406677 38.23828125 33.1171875 C38.246353 34.12588898 38.25442474 35.13459045 38.26274109 36.17385864 C38.27658592 38.31071246 38.28730629 40.44758844 38.29516602 42.58447266 C38.31239421 45.85491695 38.35627897 49.12435453 38.40039062 52.39453125 C38.41051601 54.46874255 38.41903259 56.54296246 38.42578125 58.6171875 C38.44328934 59.5964621 38.46079742 60.57573669 38.47883606 61.58468628 C38.45723444 68.33487737 38.45723444 68.33487737 36.31982422 71.4440918 C33.74292486 73.17242053 31.17634709 74.77967416 28.45703125 76.27734375 C26.84538086 77.17163086 26.84538086 77.17163086 25.20117188 78.08398438 C24.08291016 78.69564453 22.96464844 79.30730469 21.8125 79.9375 C20.71357422 80.54529297 19.61464844 81.15308594 18.48242188 81.77929688 C16.32251481 82.97323477 14.15867841 84.16009549 11.99072266 85.33935547 C10.1298546 86.37263094 8.28661832 87.43922688 6.47412109 88.55517578 C2.48731227 90.98457056 -0.95683639 92.89221103 -5.80712891 92.546875 C-10.83288342 91.29351382 -15.22827819 88.55768547 -19.6875 86 C-20.74590088 85.40856201 -21.80430176 84.81712402 -22.89477539 84.20776367 C-25.94313445 82.49386535 -28.97490431 80.75457632 -32 79 C-32.77923828 78.54834473 -33.55847656 78.09668945 -34.36132812 77.63134766 C-44.71237544 71.57524912 -44.71237544 71.57524912 -46 69 C-46.10956812 67.54084115 -46.1590127 66.07692574 -46.17700195 64.61376953 C-46.18983719 63.70587677 -46.20267242 62.79798401 -46.21589661 61.86257935 C-46.22328354 60.87925629 -46.23067047 59.89593323 -46.23828125 58.8828125 C-46.246353 57.87411102 -46.25442474 56.86540955 -46.26274109 55.82614136 C-46.27658592 53.68928754 -46.28730629 51.55241156 -46.29516602 49.41552734 C-46.31239421 46.14508305 -46.35627897 42.87564547 -46.40039062 39.60546875 C-46.41051601 37.53125745 -46.41903259 35.45703754 -46.42578125 33.3828125 C-46.44328934 32.4035379 -46.46079742 31.42426331 -46.47883606 30.41531372 C-46.45723444 23.66512263 -46.45723444 23.66512263 -44.31982422 20.5559082 C-41.74292486 18.82757947 -39.17634709 17.22032584 -36.45703125 15.72265625 C-35.38259766 15.12646484 -34.30816406 14.53027344 -33.20117188 13.91601562 C-32.08291016 13.30435547 -30.96464844 12.69269531 -29.8125 12.0625 C-28.16411133 11.15081055 -28.16411133 11.15081055 -26.48242188 10.22070312 C-24.32251481 9.02676523 -22.15867841 7.83990451 -19.99072266 6.66064453 C-18.1298546 5.62736906 -16.28661832 4.56077312 -14.47412109 3.44482422 C-9.7314054 0.55481137 -5.63161345 -1.40445492 0 0 Z M-23.7734375 33.15625 C-27.70554427 39.06693278 -27.69863277 45.12115424 -27 52 C-25.22657567 58.64472914 -20.5533353 63.17367959 -15 67 C-8.99959455 69.94137522 -1.97691554 70.18857734 4.41796875 68.27734375 C8.67360295 66.30522059 11.36207981 63.95688028 14 60 C11.36 58.68 8.72 57.36 6 56 C5.17822266 56.73089844 5.17822266 56.73089844 4.33984375 57.4765625 C0.24073481 60.14543143 -4.27506656 59.51953206 -9 59 C-12.81874426 57.40885656 -14.8294561 55.48492882 -17 52 C-17.779814 47.33411293 -18.10080606 42.24800625 -15.98046875 37.91796875 C-13.87694514 35.30604065 -12.1854514 34.06181713 -9 33 C2.27803903 32.09217023 2.27803903 32.09217023 7 36 C10.465 34.02 10.465 34.02 14 32 C10.65745759 27.44198762 7.71562737 24.22981753 2 23 C-9.76415942 21.64779777 -16.25918908 24.25669321 -23.7734375 33.15625 Z M12 40 C12 41.32 12 42.64 12 44 C10.68 44 9.36 44 8 44 C8 45.32 8 46.64 8 48 C9.32 48 10.64 48 12 48 C12 49.32 12 50.64 12 52 C13.32 52 14.64 52 16 52 C16 50.68 16 49.36 16 48 C17.32 48 18.64 48 20 48 C20 46.68 20 45.36 20 44 C18.68 44 17.36 44 16 44 C16 42.68 16 41.36 16 40 C14.68 40 13.36 40 12 40 Z M26 40 C26 41.32 26 42.64 26 44 C24.68 44 23.36 44 22 44 C22 45.32 22 46.64 22 48 C23.32 48 24.64 48 26 48 C26 49.32 26 50.64 26 52 C27.32 52 28.64 52 30 52 C30 50.68 30 49.36 30 48 C31.32 48 32.64 48 34 48 C34 46.68 34 45.36 34 44 C32.68 44 31.36 44 30 44 C30 42.68 30 41.36 30 40 C28.68 40 27.36 40 26 40 Z " fill="#525252" transform="translate(54,4)"/>
</svg>
