<?xml version="1.0" encoding="UTF-8"?>
<svg version="1.1" xmlns="http://www.w3.org/2000/svg" width="128" height="128">
  <path
    d="M0 0 C3.52337718 2.64726014 5.49334325 5.1563611 7 9.375 C5.0902454 9.96053797 3.1717704 10.51769188 1.25 11.0625 C0.18265625 11.37574219 -0.8846875 11.68898438 -1.984375 12.01171875 C-5 12.375 -5 12.375 -7.14453125 10.984375 C-7.75683594 10.45328125 -8.36914062 9.9221875 -9 9.375 C-13.68312676 8.85465258 -15.8453757 8.67218521 -19.875 11.125 C-22.43235564 13.83278832 -23.92063928 15.84862878 -24.1171875 19.62890625 C-23.67120956 24.37872446 -23.67120956 24.37872446 -21.375 28.4375 C-18.04337179 29.7526164 -15.55442856 29.74915038 -12 29.375 C-8.27196535 27.62771222 -8.27196535 27.62771222 -6 24.375 C-9.96 24.375 -13.92 24.375 -18 24.375 C-16.94124926 20.97187262 -15.99097846 18.36146769 -14 15.375 C-11.93701172 15.03442383 -11.93701172 15.03442383 -9.4296875 15.08203125 C-8.53378906 15.09169922 -7.63789062 15.10136719 -6.71484375 15.11132812 C-5.30912109 15.1490332 -5.30912109 15.1490332 -3.875 15.1875 C-2.45767578 15.20780273 -2.45767578 15.20780273 -1.01171875 15.22851562 C1.32608779 15.26393694 3.66276237 15.31332729 6 15.375 C6.19916016 14.47394531 6.19916016 14.47394531 6.40234375 13.5546875 C8.24054515 6.85065888 13.37825451 2.91746976 19 -0.625 C24.83099922 -3.47571073 32.09409245 -3.78621576 38.3125 -1.9375 C44.28816225 0.77871012 48.54922312 5.2263695 51 11.375 C51.265625 14.43359375 51.265625 14.43359375 51.25 17.8125 C51.25773437 19.48119141 51.25773437 19.48119141 51.265625 21.18359375 C51.00441051 24.322009 50.33378454 26.54335425 49 29.375 C48.34 29.375 47.68 29.375 47 29.375 C46.74734375 29.97054687 46.4946875 30.56609375 46.234375 31.1796875 C44.84833628 33.64473104 43.51281766 34.82481328 41.25 36.5 C40.59515625 36.99757812 39.9403125 37.49515625 39.265625 38.0078125 C32.67318921 41.98600651 25.49515832 42.40480072 18 41.375 C12.67708677 39.10459907 8.27728917 35.84049402 6 30.375 C6 29.715 6 29.055 6 28.375 C5.34 28.375 4.68 28.375 4 28.375 C3.835 29.07625 3.67 29.7775 3.5 30.5 C0.60424716 36.05019293 -5.13482316 39.47795467 -11 41.375 C-18.15264633 42.24504021 -24.48150804 42.28061006 -30.4140625 37.875 C-34.14750561 34.34386169 -36.72513438 30.35094889 -37.203125 25.17578125 C-37.36631916 16.51289136 -35.60594269 10.35925037 -29.67578125 3.9140625 C-21.88553267 -3.24061801 -9.21180599 -5.76490473 0 0 Z "
    fill="#525252" transform="translate(73,44.625)" />
  <path
    d="M0 0 C2.8100346 1.79363911 4.50940468 3.01880935 6 6 C6.45813548 12.07029508 5.41076984 15.18743518 1.5 19.75 C-1.92272223 22.60226852 -5.76779711 22.36484508 -10 22 C-12.75329021 20.20437595 -14.52627461 18.94745078 -16 16 C-16.79674298 9.28459484 -16.79674298 9.28459484 -14.73046875 5.953125 C-10.34062085 0.78357176 -6.99899394 -1.00560258 0 0 Z "
    transform="translate(106,53)" />
  <path
    d="M0 0 C9.24 0 18.48 0 28 0 C28 0.66 28 1.32 28 2 C18.33456945 3.1922117 8.71824449 3.09622024 -1 3 C-0.67 2.01 -0.34 1.02 0 0 Z "
    fill="#525252" transform="translate(5,58)" />
  <path
    d="M0 0 C7.59 0 15.18 0 23 0 C22.67 0.66 22.34 1.32 22 2 C14.41 2.33 6.82 2.66 -1 3 C-0.67 2.01 -0.34 1.02 0 0 Z "
    fill="#525252" transform="translate(13,53)" />
  <path
    d="M0 0 C4.29 0.33 8.58 0.66 13 1 C13 1.66 13 2.32 13 3 C8.38 3 3.76 3 -1 3 C-0.67 2.01 -0.34 1.02 0 0 Z "
    fill="#525252" transform="translate(19,63)" />
</svg>