<?xml version="1.0" encoding="UTF-8"?>
<svg version="1.1" xmlns="http://www.w3.org/2000/svg" width="100" height="100">
<path d="M0 0 C-1.24716797 0.92232422 -1.24716797 0.92232422 -2.51953125 1.86328125 C-3.61728343 2.67955851 -4.71493437 3.49597193 -5.8125 4.3125 C-6.35970703 4.71662109 -6.90691406 5.12074219 -7.47070312 5.53710938 C-11.54621297 8.44071982 -11.54621297 8.44071982 -15 12 C-14.77589301 16.18333056 -14.3385104 18.49223439 -12 22 C-11.32773109 28.94677871 -11.32773109 28.94677871 -13.875 32.9375 C-16 35 -16 35 -18 36 C-13.38 35.67 -8.76 35.34 -4 35 C-5.15824758 38.47474275 -5.94349174 39.12477656 -9 41 C-18.83388189 43.91253074 -29.81623922 43.59520616 -40 44 C-40.33 44.66 -40.66 45.32 -41 46 C-33.47382481 46.84640876 -26.96390108 47.17318986 -19.5 45.8125 C-12.49066149 44.60752383 -12.49066149 44.60752383 -9.125 46.875 C-8.42375 47.57625 -7.7225 48.2775 -7 49 C-7.495 49.99 -7.495 49.99 -8 51 C-17.32784035 53.9772609 -26.29561106 54.39820441 -36 54 C-36.33 54.66 -36.66 55.32 -37 56 C-31.17829602 56.20268989 -25.87923649 56.07911429 -20.1875 54.75 C-16.54580904 53.99870559 -14.50067213 53.71435958 -11.3125 55.75 C-10.549375 56.4925 -9.78625 57.235 -9 58 C-9 58.66 -9 59.32 -9 60 C-19.55869092 64.3366052 -32.05137404 65.58661885 -43 62 C-43.66 61.34 -44.32 60.68 -45 60 C-44.67028521 56.70285207 -44.3773161 55.3773161 -42 53 C-43.98 52.01 -45.96 51.02 -48 50 C-48 46 -48 46 -46 44 C-50.95 42.02 -50.95 42.02 -56 40 C-56 38.35 -56 36.7 -56 35 C-48.92444501 31.9982494 -42.62951555 31.65144345 -35 32 C-37.91765 33.9451 -39.62537285 34.45276317 -43 35 C-43 35.66 -43 36.32 -43 37 C-36.07 37 -29.14 37 -22 37 C-19.90502383 31.76255957 -19.7240605 30.28603507 -21 25 C-21.67488849 23.81367258 -22.38460346 22.64658632 -23.125 21.5 C-25.39643098 17.2599955 -25.32911547 15.56883443 -24 11 C-21.21605243 5.32074696 -17.70672939 3.16070008 -12 1 C-7.77749674 -0.41515055 -4.35190744 -1.33830782 0 0 Z " fill="#525252" transform="translate(74,18)"/>
<path d="M0 0 C0.97066406 -0.02578125 1.94132812 -0.0515625 2.94140625 -0.078125 C4.17697266 0.08429688 4.17697266 0.08429688 5.4375 0.25 C6.0975 1.24 6.7575 2.23 7.4375 3.25 C4.7975 3.58 2.1575 3.91 -0.5625 4.25 C-0.5625 5.24 -0.5625 6.23 -0.5625 7.25 C15.77628485 10.83062732 36.58271766 13.5842205 52.25 6.375 C55.39013482 4.28157679 56.03220128 3.5267453 57.4375 0.25 C59.55528362 1.9265787 60.36665121 3.00524965 61.125 5.625 C60.33609799 8.63717131 59.8325359 9.10130017 57.375 10.875 C41.2569062 19.66920953 15.28667465 18.83855407 -2.03515625 14.1640625 C-5.52944 12.90028754 -7.88109124 11.85479708 -10.5625 9.25 C-11.625 6.6875 -11.625 6.6875 -11.5625 4.25 C-8.6384312 0.15630369 -4.7105232 0.07526801 0 0 Z " fill="#525252" transform="translate(21.5625,76.75)"/>
<path d="M0 0 C3 2 3 2 4 5 C4.59306857 11.04929946 3.45625836 15.11748819 0 20 C-2.46767617 22.64134241 -5.0144601 25.14278316 -7.66015625 27.60546875 C-9.99643706 29.99635379 -11.62963932 31.95106602 -13 35 C-12.75348089 40.16868397 -9.73721151 44.21935644 -7.1796875 48.57421875 C-6.79039063 49.37472656 -6.40109375 50.17523438 -6 51 C-6.33 51.66 -6.66 52.32 -7 53 C-13.8312616 48.2788392 -20.17692615 43.19377653 -22.609375 34.9296875 C-22.93264287 31.75917568 -22.46629573 29.76496882 -20.8046875 27.0390625 C-17.43764517 22.92378854 -13.47025113 19.72580183 -9.3125 16.4375 C-4.89933176 12.91545227 -2.11862072 10.24610845 0 5 C0.3384885 2.20526411 0.3384885 2.20526411 0 0 Z " fill="#525252" transform="translate(56,0)"/>
<path d="M0 0 C0.66 0 1.32 0 2 0 C1.73339601 3.19924794 1.28552552 4.69605348 -0.9375 7.0625 C-15.16609247 16.06426258 -34.99487985 16.22846539 -51.16015625 13.17578125 C-56.13989222 12.03520482 -60.71518512 10.85654325 -65 8 C-63.35405757 8.14459681 -61.70825269 8.29075936 -60.0625 8.4375 C-58.54076172 8.57285156 -58.54076172 8.57285156 -56.98828125 8.7109375 C-54.56376336 8.94546603 -52.16342737 9.23947913 -49.75 9.5625 C-32.80575111 11.39512266 -15.75976729 10.062063 -1 1 C-0.67 0.67 -0.34 0.34 0 0 Z " fill="#525252" transform="translate(88,86)"/>
<path d="M0 0 C1.9453125 0.40234375 1.9453125 0.40234375 4.5078125 2.33984375 C6.51938993 6.62537827 6.34152844 9.91159074 4.9453125 14.40234375 C1.66745398 18.83709352 -1.933392 20.7262834 -7.0546875 22.40234375 C-9.26953125 21.97265625 -9.26953125 21.97265625 -11.0546875 21.40234375 C-10.48878906 20.90605469 -9.92289062 20.40976563 -9.33984375 19.8984375 C-4.33829621 15.50469253 -4.33829621 15.50469253 -1.9296875 9.52734375 C-1.70494932 6.29989519 -1.70494932 6.29989519 -4.0546875 4.40234375 C-6.62530061 3.75466582 -6.62530061 3.75466582 -9.0546875 3.40234375 C-6.75584278 -0.04592333 -3.98179976 -0.18366235 0 0 Z " fill="#525252" transform="translate(80.0546875,49.59765625)"/>
</svg>
