<?xml version="1.0" encoding="UTF-8"?>
<svg version="1.1" xmlns="http://www.w3.org/2000/svg" width="100" height="100">
<path d="M0 0 C1.10658966 0.00607269 1.10658966 0.00607269 2.23553467 0.01226807 C3.01289978 0.00876343 3.79026489 0.00525879 4.59118652 0.00164795 C7.16803849 -0.00717493 9.74461727 -0.00131833 12.32147217 0.00543213 C14.10744276 0.00408564 15.89341299 0.00214524 17.67938232 -0.00036621 C21.42534876 -0.00331823 25.17121992 0.00098264 28.91717529 0.01031494 C33.7261005 0.02170953 38.53480248 0.01515047 43.34371948 0.00317001 C47.03250825 -0.00404651 50.72124383 -0.00176162 54.41003418 0.0034256 C56.18351264 0.00476267 57.95699587 0.00311237 59.73046875 -0.00153351 C62.20624642 -0.00659536 64.68165927 0.0011065 67.15740967 0.01226807 C67.89513611 0.0082196 68.63286255 0.00417114 69.39294434 0 C74.46794339 0.04252835 74.46794339 0.04252835 76.69647217 2.27105713 C76.89478733 4.81993837 76.96925479 7.26015933 76.95526123 9.81011963 C76.95876587 10.58748474 76.96227051 11.36484985 76.96588135 12.16577148 C76.97470423 14.74262345 76.96884762 17.31920223 76.96209717 19.89605713 C76.96344366 21.68202772 76.96538406 23.46799795 76.96789551 25.25396729 C76.97084752 28.99993372 76.96654666 32.74580488 76.95721436 36.49176025 C76.94581976 41.30068546 76.95237882 46.10938744 76.96435928 50.91830444 C76.97157581 54.60709321 76.96929092 58.2958288 76.9641037 61.98461914 C76.96276662 63.7580976 76.96441693 65.53158084 76.96906281 67.30505371 C76.97412466 69.78083138 76.96642279 72.25624423 76.95526123 74.73199463 C76.95930969 75.46972107 76.96335815 76.20744751 76.9675293 76.9675293 C76.92500095 82.04252835 76.92500095 82.04252835 74.69647217 84.27105713 C72.14759092 84.46937229 69.70736996 84.54383975 67.15740967 84.52984619 C66.38004456 84.53335083 65.60267944 84.53685547 64.80175781 84.54046631 C62.22490585 84.54928919 59.64832707 84.54343258 57.07147217 84.53668213 C55.28550158 84.53802862 53.49953134 84.53996902 51.71356201 84.54248047 C47.96759558 84.54543248 44.22172442 84.54113162 40.47576904 84.53179932 C35.66684384 84.52040472 30.85814186 84.52696378 26.04922485 84.53894424 C22.36043608 84.54616077 18.6717005 84.54387588 14.98291016 84.53868866 C13.2094317 84.53735159 11.43594846 84.53900189 9.66247559 84.54364777 C7.18669791 84.54870962 4.71128507 84.54100776 2.23553467 84.52984619 C1.49780823 84.53389465 0.76008179 84.53794312 0 84.54211426 C-5.07499905 84.49958591 -5.07499905 84.49958591 -7.30352783 82.27105713 C-7.50184299 79.72217589 -7.57631045 77.28195492 -7.56231689 74.73199463 C-7.56582153 73.95462952 -7.56932617 73.1772644 -7.57293701 72.37634277 C-7.58175989 69.79949081 -7.57590329 67.22291203 -7.56915283 64.64605713 C-7.57049932 62.86008654 -7.57243972 61.0741163 -7.57495117 59.28814697 C-7.57790319 55.54218054 -7.57360232 51.79630938 -7.56427002 48.050354 C-7.55287543 43.2414288 -7.55943449 38.43272682 -7.57141495 33.62380981 C-7.57863147 29.93502104 -7.57634658 26.24628546 -7.57115936 22.55749512 C-7.56982229 20.78401666 -7.57147259 19.01053342 -7.57611847 17.23706055 C-7.58118032 14.76128288 -7.57347846 12.28587003 -7.56231689 9.81011963 C-7.56636536 9.07239319 -7.57041382 8.33466675 -7.57458496 7.57458496 C-7.52186101 1.28292347 -6.29166149 0.05272395 0 0 Z M30.69647217 38.27105713 C30.36647217 47.84105713 30.03647217 57.41105713 29.69647217 67.27105713 C22.69647217 67.27105713 22.69647217 67.27105713 19.69647217 65.27105713 C18.37647217 66.59105713 17.05647217 67.91105713 15.69647217 69.27105713 C19.51541043 73.62816797 19.51541043 73.62816797 24.71990967 75.43902588 C25.49592529 75.44547119 26.27194092 75.4519165 27.07147217 75.45855713 C27.84233154 75.47273682 28.61319092 75.4869165 29.40740967 75.50152588 C32.01473438 75.23901366 33.47466488 74.65199411 35.69647217 73.27105713 C39.80247547 66.61144934 39.04573295 58.20347353 38.88397217 50.70855713 C38.87043701 49.50908447 38.85690186 48.30961182 38.84295654 47.0737915 C38.80788017 44.13906834 38.75872644 41.20530831 38.69647217 38.27105713 C36.05647217 38.27105713 33.41647217 38.27105713 30.69647217 38.27105713 Z M47.63397217 41.39605713 C45.46022127 44.62162298 44.69647217 46.38440966 44.69647217 50.27105713 C45.658003 54.11718046 46.98358244 55.79867331 50.27850342 57.98199463 C55.20849351 61.04125683 55.20849351 61.04125683 60.69647217 62.27105713 C60.36647217 64.25105713 60.03647217 66.23105713 59.69647217 68.27105713 C57.07147217 69.02105713 57.07147217 69.02105713 53.69647217 69.27105713 C50.32147217 67.33355713 50.32147217 67.33355713 47.69647217 65.27105713 C46.37647217 66.59105713 45.05647217 67.91105713 43.69647217 69.27105713 C47.96127286 73.64808942 49.84020591 75.42916789 55.94647217 75.64605713 C59.61826207 75.59298264 62.33072453 75.46424073 65.38397217 73.33355713 C68.08678537 69.75415586 68.53890821 67.80543476 68.20428467 63.41168213 C67.15086725 58.97112257 64.12623866 57.16096352 60.43084717 54.86090088 C56.31497239 52.24220679 56.31497239 52.24220679 51.69647217 51.27105713 C52.35647217 49.29105713 53.01647217 47.31105713 53.69647217 45.27105713 C54.62459717 45.43605713 55.55272217 45.60105713 56.50897217 45.77105713 C59.6526857 46.34854101 59.6526857 46.34854101 62.69647217 46.27105713 C64.38446043 44.83355522 64.38446043 44.83355522 65.69647217 43.27105713 C62.57236065 39.93867151 60.15508699 38.91485125 55.69647217 38.70855713 C51.94676177 38.87061615 50.82877813 39.17925299 47.63397217 41.39605713 Z " fill="#525252" transform="translate(15.30352783203125,7.72894287109375)"/>
</svg>
