<?xml version="1.0" encoding="UTF-8"?>
<svg version="1.1" xmlns="http://www.w3.org/2000/svg" width="100" height="100">
<path d="M0 0 C0.72058594 -0.01998047 1.44117188 -0.03996094 2.18359375 -0.06054688 C7.73559163 -0.05552699 10.96189411 1.21566511 15.5 4.4375 C19.44624898 8.43007063 20.01796253 11.15372388 20.109375 16.70703125 C20.12591125 17.38803391 20.14244751 18.06903656 20.15948486 18.77067566 C20.20779303 20.93054371 20.2292951 23.08970875 20.25 25.25 C20.27817444 26.72073817 20.30810394 28.19144383 20.33984375 29.66210938 C20.41683211 33.25422404 20.45750032 36.84415223 20.5 40.4375 C20.83 35.8175 21.16 31.1975 21.5 26.4375 C38.50354431 25.40466379 38.50354431 25.40466379 42.9375 29.125 C47.69934189 34.14634281 47.83923957 39.82380476 47.8125 46.375 C47.82861328 47.16068359 47.84472656 47.94636719 47.86132812 48.75585938 C47.86678504 55.27686883 46.59781276 59.30719507 41.89916992 64.07861328 C38.28200521 67.0036931 34.76848529 67.08423761 30.2578125 66.92578125 C29.10525467 66.91516914 29.10525467 66.91516914 27.92941284 66.90434265 C25.49358583 66.87652296 23.06012296 66.81381602 20.625 66.75 C18.96617922 66.7249007 17.30732212 66.70209039 15.6484375 66.68164062 C11.59805802 66.62673818 7.54942873 66.54055907 3.5 66.4375 C3.5 67.0975 3.5 67.7575 3.5 68.4375 C10.1 68.4375 16.7 68.4375 23.5 68.4375 C24.16964286 83.70535714 24.16964286 83.70535714 21.4375 87.1875 C15.4714935 91.7572071 10.33263559 92.94714579 3 92.875 C2.27941406 92.89498047 1.55882812 92.91496094 0.81640625 92.93554688 C-4.73559163 92.93052699 -7.96189411 91.65933489 -12.5 88.4375 C-16.29413417 84.55086775 -17.01446346 81.99169854 -17.109375 76.60546875 C-17.14160156 75.31318359 -17.17382812 74.02089844 -17.20703125 72.68945312 C-17.2217735 71.33463991 -17.23609112 69.97982202 -17.25 68.625 C-17.27817759 67.25061361 -17.30810754 65.87626195 -17.33984375 64.50195312 C-17.41047274 61.1470759 -17.46320774 57.79289104 -17.5 54.4375 C-17.83 58.3975 -18.16 62.3575 -18.5 66.4375 C-35.50354431 67.47033621 -35.50354431 67.47033621 -39.9375 63.75 C-44.69934189 58.72865719 -44.83923957 53.05119524 -44.8125 46.5 C-44.82861328 45.71431641 -44.84472656 44.92863281 -44.86132812 44.11914062 C-44.86678504 37.59813117 -43.59781276 33.56780493 -38.89916992 28.79638672 C-35.28200521 25.8713069 -31.76848529 25.79076239 -27.2578125 25.94921875 C-26.48944061 25.95629349 -25.72106873 25.96336823 -24.92941284 25.97065735 C-22.49358583 25.99847704 -20.06012296 26.06118398 -17.625 26.125 C-15.96617922 26.1500993 -14.30732212 26.17290961 -12.6484375 26.19335938 C-8.59805802 26.24826182 -4.54942873 26.33444093 -0.5 26.4375 C-0.5 25.7775 -0.5 25.1175 -0.5 24.4375 C-7.1 24.4375 -13.7 24.4375 -20.5 24.4375 C-21.16964286 9.16964286 -21.16964286 9.16964286 -18.4375 5.6875 C-12.4714935 1.1177929 -7.33263559 -0.07214579 0 0 Z M-10.5 11.4375 C-10.83 13.0875 -11.16 14.7375 -11.5 16.4375 C-9.025 16.9325 -9.025 16.9325 -6.5 17.4375 C-6.17 15.7875 -5.84 14.1375 -5.5 12.4375 C-7.15 12.1075 -8.8 11.7775 -10.5 11.4375 Z M-13.5 48.4375 C-9.06255461 48.49543591 -4.62520611 48.53107467 -0.1875 48.5625 C1.70645508 48.58763672 1.70645508 48.58763672 3.63867188 48.61328125 C4.84716797 48.61972656 6.05566406 48.62617187 7.30078125 48.6328125 C8.41622314 48.64328613 9.53166504 48.65375977 10.6809082 48.66455078 C13.70678201 48.65072653 13.70678201 48.65072653 16.5 46.4375 C12.06255461 46.37956409 7.62520611 46.34392533 3.1875 46.3125 C1.29354492 46.28736328 1.29354492 46.28736328 -0.63867188 46.26171875 C-1.84716797 46.25527344 -3.05566406 46.24882813 -4.30078125 46.2421875 C-5.41622314 46.23171387 -6.53166504 46.22124023 -7.6809082 46.21044922 C-10.70678201 46.22427347 -10.70678201 46.22427347 -13.5 48.4375 Z M9.5 75.4375 C9.17 77.0875 8.84 78.7375 8.5 80.4375 C10.975 80.9325 10.975 80.9325 13.5 81.4375 C13.83 79.7875 14.16 78.1375 14.5 76.4375 C12.85 76.1075 11.2 75.7775 9.5 75.4375 Z " fill="#525252" transform="translate(48.5,3.5625)"/>
</svg>
