<?xml version="1.0" encoding="UTF-8"?>
<svg version="1.1" xmlns="http://www.w3.org/2000/svg" width="100" height="100">
<path d="M0 0 C2.89453125 1.84765625 2.89453125 1.84765625 5.8125 4.0625 C6.78832031 4.79597656 7.76414063 5.52945312 8.76953125 6.28515625 C9.50558594 6.85105469 10.24164063 7.41695312 11 8 C10.07371319 12.02092684 9.05942266 16.01212953 8 20 C7.75636719 20.96679688 7.51273438 21.93359375 7.26171875 22.9296875 C5.26546624 29.60909164 2.34219016 33.18141436 -3.05078125 37.53515625 C-5.28445615 39.40197593 -7.19134975 41.20024007 -9.16796875 43.30859375 C-18.20869484 52.76632019 -26.75369408 56.74618017 -39.99609375 57.07421875 C-40.98802734 57.03748047 -40.98802734 57.03748047 -42 57 C-43.03712685 54.61009899 -44.05468019 52.21473126 -45.0625 49.8125 C-45.35705078 49.13896484 -45.65160156 48.46542969 -45.95507812 47.77148438 C-47.62705773 43.73906297 -48.56232063 41.13555461 -47 37 C-42.10478876 27.24302999 -36.2482898 19.22682977 -28 12 C-27.20851563 11.27039062 -26.41703125 10.54078125 -25.6015625 9.7890625 C-19.12590211 4.1516753 -8.92007885 -3.1515736 0 0 Z " fill="#525252" transform="translate(54,6)"/>
<path d="M0 0 C7.44161488 2.05599379 14.50768649 4.70849094 21.625 7.6875 C22.62917969 8.10322266 23.63335937 8.51894531 24.66796875 8.94726562 C27.11380576 9.96054096 29.5577285 10.97816796 32 12 C27.4082218 21.91330739 12.82591517 28.14483226 3 32 C-0.67632144 33.00188039 -4.22033221 33.60501576 -8 34 C-6.69899677 26.14647754 -4.93593375 18.49909264 -2.875 10.8125 C-2.59785156 9.76513672 -2.32070313 8.71777344 -2.03515625 7.63867188 C-1.3605415 5.09141963 -0.68211353 2.5452524 0 0 Z " fill="#525252" transform="translate(35,62)"/>
<path d="M0 0 C-1.65480948 13.14226603 -11.60948463 23.38160434 -20 33 C-22 32 -22 32 -23.05322266 29.36376953 C-23.60308838 27.6406958 -23.60308838 27.6406958 -24.1640625 25.8828125 C-24.56367187 24.63628906 -24.96328125 23.38976562 -25.375 22.10546875 C-25.57996094 21.45239746 -25.78492187 20.79932617 -25.99609375 20.12646484 C-26.62113941 18.13728614 -27.25877803 16.15249007 -27.8984375 14.16796875 C-31 4.41013088 -31 4.41013088 -31 1 C-26.95841399 0.83133892 -22.91671968 0.66542437 -18.875 0.5 C-17.73289062 0.45230469 -16.59078125 0.40460937 -15.4140625 0.35546875 C-14.30546875 0.31035156 -13.196875 0.26523437 -12.0546875 0.21875 C-10.53077393 0.1559082 -10.53077393 0.1559082 -8.97607422 0.09179688 C-5.98198857 -0.00055556 -2.99530376 -0.01562088 0 0 Z " fill="#525252" transform="translate(93,37)"/>
<path d="M0 0 C0.99 0.33 1.98 0.66 3 1 C4.18261719 3.52856445 4.18261719 3.52856445 5.296875 6.86328125 C5.89822266 8.65862305 5.89822266 8.65862305 6.51171875 10.49023438 C6.71458496 11.11760498 6.91745117 11.74497559 7.12646484 12.39135742 C7.74583367 14.29966335 8.39042879 16.19972102 9.03515625 18.09960938 C12.12857975 27.485681 12.12857975 27.485681 11 32 C1.43 28.37 -8.14 24.74 -18 21 C-18 17 -18 17 -16.75 15.32421875 C-16.1725 14.78410156 -15.595 14.24398437 -15 13.6875 C-14.36578125 13.08808594 -13.7315625 12.48867188 -13.078125 11.87109375 C-10.3437667 9.40914333 -7.59210128 6.9708387 -4.796875 4.578125 C-3.12659942 3.11118731 -1.55211328 1.59043707 0 0 Z " fill="#525252" transform="translate(57,40)"/>
<path d="M0 0 C0.33 0 0.66 0 1 0 C0.31207622 15.02570365 -0.79408247 30.00765406 -2 45 C-6.02284977 43.1400134 -8.93928849 40.46431349 -12.125 37.4375 C-15.76403407 33.81366093 -15.76403407 33.81366093 -20 31 C-19.45811739 26.8681451 -17.22312673 24.72580343 -14.5 21.6875 C-9.88544111 16.40364113 -6.25577746 10.80943306 -2.78125 4.7253418 C-1.87437013 3.13850964 -0.94002618 1.56742406 0 0 Z " fill="#525252" transform="translate(94,44)"/>
<path d="M0 0 C2.24964163 0.82750958 3.45595833 1.73259185 5.18774414 3.37451172 C5.7478418 3.89916016 6.30793945 4.42380859 6.88500977 4.96435547 C7.45799805 5.51478516 8.03098633 6.06521484 8.62133789 6.63232422 C9.19819336 7.17501953 9.77504883 7.71771484 10.36938477 8.27685547 C12.97218719 10.73255603 15.53103695 13.22456525 18.05883789 15.75732422 C12.45395682 16.18697463 6.84889481 16.61415284 1.24365234 17.0390625 C-0.66232365 17.18389399 -2.56824885 17.32939548 -4.47412109 17.47558594 C-7.21690943 17.68585446 -9.95987265 17.89369612 -12.70288086 18.10107422 C-13.97659798 18.19950623 -13.97659798 18.19950623 -15.27604675 18.29992676 C-19.17432004 18.5924352 -23.02831731 18.84079824 -26.94116211 18.75732422 C-26.94116211 18.09732422 -26.94116211 17.43732422 -26.94116211 16.75732422 C-26.25151367 16.40541016 -25.56186523 16.05349609 -24.85131836 15.69091797 C-17.1786747 11.6598857 -10.59798213 7.0078309 -4.12866211 1.25732422 C-1.94116211 -0.24267578 -1.94116211 -0.24267578 0 0 Z " fill="#525252" transform="translate(71.941162109375,76.24267578125)"/>
<path d="M0 0 C4.52048956 2.37407005 7.07627551 5.51007652 8.71484375 10.42578125 C8.78513496 12.99843943 8.80855207 15.54219556 8.77734375 18.11328125 C8.77283203 18.81517578 8.76832031 19.51707031 8.76367188 20.24023438 C8.75191302 21.96878663 8.73397829 23.6972949 8.71484375 25.42578125 C4.42174444 25.42578125 3.79044062 25.11067633 0.52734375 22.6875 C-0.25382812 22.11451172 -1.035 21.54152344 -1.83984375 20.95117188 C-2.64679688 20.34466797 -3.45375 19.73816406 -4.28515625 19.11328125 C-5.49558594 18.22092773 -5.49558594 18.22092773 -6.73046875 17.31054688 C-8.92264208 15.69173901 -11.10596156 14.06200021 -13.28515625 12.42578125 C-14.03152344 11.90733643 -14.77789062 11.3888916 -15.546875 10.85473633 C-16.12050781 10.38318115 -16.69414063 9.91162598 -17.28515625 9.42578125 C-17.28515625 8.76578125 -17.28515625 8.10578125 -17.28515625 7.42578125 C-15.09004311 6.02451725 -12.8833467 4.65616698 -10.66015625 3.30078125 C-10.04269531 2.90246094 -9.42523438 2.50414062 -8.7890625 2.09375 C-5.52128121 0.13308122 -3.80648122 -0.66534214 0 0 Z " fill="#525252" transform="translate(87.28515625,5.57421875)"/>
<path d="M0 0 C3.50753757 1.2835833 6.36630495 2.78324315 9.390625 4.96875 C10.57785156 5.82533203 10.57785156 5.82533203 11.7890625 6.69921875 C12.60117188 7.29347656 13.41328125 7.88773438 14.25 8.5 C15.07757813 9.09425781 15.90515625 9.68851563 16.7578125 10.30078125 C22.86971123 14.73942246 22.86971123 14.73942246 24 17 C18.06372979 18.30433619 12.16667748 18.11086318 6.125 18.0625 C4.52011719 18.05573242 4.52011719 18.05573242 2.8828125 18.04882812 C0.25515014 18.03709749 -2.37239538 18.02068228 -5 18 C-4.70486753 16.42886476 -4.40431394 14.8587474 -4.1015625 13.2890625 C-3.93479004 12.41459473 -3.76801758 11.54012695 -3.59619141 10.63916016 C-2.75517183 6.91621929 -1.4387425 3.53145886 0 0 Z " fill="#525252" transform="translate(67,17)"/>
<path d="M0 0 C-0.66488953 6.83769106 -2.19754067 13.29895014 -3.9375 19.9375 C-4.33485352 21.5162793 -4.33485352 21.5162793 -4.74023438 23.12695312 C-4.99998047 24.12533203 -5.25972656 25.12371094 -5.52734375 26.15234375 C-5.76187256 27.05976318 -5.99640137 27.96718262 -6.23803711 28.90209961 C-7 31 -7 31 -9 32 C-10.50499009 27.71006667 -12.00314637 23.41777842 -13.5 19.125 C-13.92925781 17.90167969 -14.35851562 16.67835937 -14.80078125 15.41796875 C-15.20683594 14.25136719 -15.61289062 13.08476563 -16.03125 11.8828125 C-16.40830078 10.80402832 -16.78535156 9.72524414 -17.17382812 8.61376953 C-18 6 -18 6 -18 4 C-15.37569876 3.3304744 -12.75063343 2.66426282 -10.125 2 C-9.00544922 1.71382812 -9.00544922 1.71382812 -7.86328125 1.421875 C-2.2265625 0 -2.2265625 0 0 0 Z " fill="#525252" transform="translate(32,62)"/>
<path d="M0 0 C2.3311226 2.3311226 2.87370814 4.05258596 3.9453125 7.15625 C4.29980469 8.17847656 4.65429688 9.20070313 5.01953125 10.25390625 C5.38433594 11.32511719 5.74914063 12.39632812 6.125 13.5 C6.68380859 15.10681641 6.68380859 15.10681641 7.25390625 16.74609375 C10 24.72284226 10 24.72284226 10 27 C4.17817406 26.64356168 0.08233381 25.32064263 -4 21 C-6.10271429 18.02824483 -7.05995991 15.66300546 -7 12 C-5.14439062 7.65107886 -2.7297184 3.85027106 0 0 Z " fill="#525252" transform="translate(11,69)"/>
<path d="M0 0 C7.92 0 15.84 0 24 0 C19.84545903 3.32363278 16.73446896 5.8018537 12 8 C7.53341393 7.21834744 3.47366901 3.8730346 0 1 C0 0.67 0 0.34 0 0 Z " fill="#525252" transform="translate(56,4)"/>
<path d="M0 0 C2.20541388 2.20541388 2.9973448 3.94667501 4.1875 6.8125 C4.55230469 7.66457031 4.91710937 8.51664063 5.29296875 9.39453125 C6.30077643 13.10838608 5.67563624 15.59717295 4.02734375 19.01953125 C3.01822917 20.6796875 2.00911458 22.33984375 1 24 C0.67 24 0.34 24 0 24 C0 16.08 0 8.16 0 0 Z " fill="#525252" transform="translate(4,51)"/>
</svg>
