<?xml version="1.0" encoding="UTF-8"?>
<svg version="1.1" xmlns="http://www.w3.org/2000/svg" width="96" height="96">
<path d="M0 0 C0.598125 0.33 1.19625 0.66 1.8125 1 C4.05386471 2.20787988 4.05386471 2.20787988 7 2 C7.33 1.34 7.66 0.68 8 0 C12 0 12 0 13.75 1.5 C14.1625 1.995 14.575 2.49 15 3 C15.99 2.01 16.98 1.02 18 0 C18.99 0.33 19.98 0.66 21 1 C21.495 3.475 21.495 3.475 22 6 C22.5775 5.484375 23.155 4.96875 23.75 4.4375 C26 3 26 3 28.25 3.3125 C28.8275 3.539375 29.405 3.76625 30 4 C30 5.65 30 7.3 30 9 C32.31 8.34 34.62 7.68 37 7 C38 8 38 8 38.0625 11.0625 C38.041875 12.031875 38.02125 13.00125 38 14 C40.97 13.505 40.97 13.505 44 13 C44.93423645 16.01031744 45.04449911 16.86650268 44 20 C45.98 20 47.96 20 50 20 C51.2077558 23.62326739 50.54311128 24.64146369 49 28 C50.65 28 52.3 28 54 28 C54.6875 29.75 54.6875 29.75 55 32 C53.5625 34.25 53.5625 34.25 52 36 C53.65 36.33 55.3 36.66 57 37 C57 41 57 41 55 44 C56.485 44.99 56.485 44.99 58 46 C58 50 58 50 56.5 51.75 C56.005 52.1625 55.51 52.575 55 53 C55.99 53.99 56.98 54.98 58 56 C57.67 56.99 57.34 57.98 57 59 C55.35 59.33 53.7 59.66 52 60 C52.7734375 60.86625 52.7734375 60.86625 53.5625 61.75 C55 64 55 64 54.6875 66.25 C54.460625 66.8275 54.23375 67.405 54 68 C52.35 68 50.7 68 49 68 C49.99 71.465 49.99 71.465 51 75 C50 76 50 76 46.9375 76.0625 C45.968125 76.041875 44.99875 76.02125 44 76 C44.33 77.98 44.66 79.96 45 82 C41.98968256 82.93423645 41.13349732 83.04449911 38 82 C38 83.98 38 85.96 38 88 C34.37673261 89.2077558 33.35853631 88.54311128 30 87 C30 88.65 30 90.3 30 92 C28.25 92.6875 28.25 92.6875 26 93 C23.75 91.5625 23.75 91.5625 22 90 C21.67 91.65 21.34 93.3 21 95 C17 95 17 95 14 93 C13.34 93.99 12.68 94.98 12 96 C8 96 8 96 6.25 94.5 C5.8375 94.005 5.425 93.51 5 93 C4.01 93.99 3.02 94.98 2 96 C1.01 95.67 0.02 95.34 -1 95 C-1.33 93.35 -1.66 91.7 -2 90 C-2.86625 90.7734375 -2.86625 90.7734375 -3.75 91.5625 C-6 93 -6 93 -8.25 92.6875 C-8.8275 92.460625 -9.405 92.23375 -10 92 C-10 90.35 -10 88.7 -10 87 C-13.465 87.99 -13.465 87.99 -17 89 C-18 88 -18 88 -18.0625 84.9375 C-18.041875 83.968125 -18.02125 82.99875 -18 82 C-20.97 82.495 -20.97 82.495 -24 83 C-24.93423645 79.98968256 -25.04449911 79.13349732 -24 76 C-25.98 76 -27.96 76 -30 76 C-31.2077558 72.37673261 -30.54311128 71.35853631 -29 68 C-30.65 68 -32.3 68 -34 68 C-34.6875 66.25 -34.6875 66.25 -35 64 C-33.5625 61.75 -33.5625 61.75 -32 60 C-33.65 59.67 -35.3 59.34 -37 59 C-37 55 -37 55 -35 52 C-35.99 51.34 -36.98 50.68 -38 50 C-38 46 -38 46 -36.5 44.25 C-36.005 43.8375 -35.51 43.425 -35 43 C-35.99 42.01 -36.98 41.02 -38 40 C-37.67 39.01 -37.34 38.02 -37 37 C-34.525 36.505 -34.525 36.505 -32 36 C-32.7734375 35.13375 -32.7734375 35.13375 -33.5625 34.25 C-35 32 -35 32 -34.6875 29.75 C-34.3471875 28.88375 -34.3471875 28.88375 -34 28 C-32.35 28 -30.7 28 -29 28 C-29.66 25.69 -30.32 23.38 -31 21 C-30 20 -30 20 -26.9375 19.9375 C-25.4834375 19.9684375 -25.4834375 19.9684375 -24 20 C-24.33 18.02 -24.66 16.04 -25 14 C-21.98968256 13.06576355 -21.13349732 12.95550089 -18 14 C-18 12.02 -18 10.04 -18 8 C-14.37673261 6.7922442 -13.35853631 7.45688872 -10 9 C-10 7.35 -10 5.7 -10 4 C-8.25 3.3125 -8.25 3.3125 -6 3 C-3.75 4.4375 -3.75 4.4375 -2 6 C-1.855625 5.195625 -1.71125 4.39125 -1.5625 3.5625 C-1 1 -1 1 0 0 Z M9 9 C8.67 10.32 8.34 11.64 8 13 C9.32 13 10.64 13 12 13 C11.67 11.68 11.34 10.36 11 9 C10.34 9 9.68 9 9 9 Z M-5 16.1875 C-5.845625 16.59355469 -6.69125 16.99960937 -7.5625 17.41796875 C-10.37570613 19.24384773 -11.96648396 21.35734272 -14 24 C-12.85523193 24.0093457 -11.71046387 24.01869141 -10.53100586 24.02832031 C-6.2609242 24.06836199 -1.9915523 24.13415952 2.27807617 24.20751953 C4.12173303 24.23564722 5.96550863 24.25690239 7.80932617 24.27099609 C10.46855097 24.29253991 13.12636034 24.3392467 15.78515625 24.390625 C17.01057884 24.39246796 17.01057884 24.39246796 18.26075745 24.39434814 C23.93950114 24.53785682 27.3226667 25.73521303 32 29 C34.01973783 32.11376249 34.00578943 33.83500131 33.875 37.5625 C32.93024856 41.27402351 31.93642886 42.63191221 29 45 C30.58962659 49.03520597 32.28232318 53.01811282 34 57 C37.29075996 56.62095792 37.29075996 56.62095792 40 55 C40.04063832 53.33382885 40.042721 51.66611905 40 50 C41.65 50 43.3 50 45 50 C45.05175552 47.12688428 45.05175552 47.12688428 44 44 C41.77488786 42.23488701 39.59562397 41.22702224 37 40 C37.29777344 39.3709375 37.59554687 38.741875 37.90234375 38.09375 C39.01252733 35.31200699 39.74369341 32.99024353 40 30 C38.3491089 26.57858801 35.87759215 24.42487874 33 22 C32.35933594 21.41992188 31.71867187 20.83984375 31.05859375 20.2421875 C26.65124319 16.55603976 21.89559917 13.89472144 16 14 C13.72855926 15.85432087 13.72855926 15.85432087 12 18 C8.06122617 17.90393235 6.66635427 16.66635427 4 14 C-0.00860692 14 -1.51623134 14.46154754 -5 16.1875 Z M-25 35 C-25.33 36.32 -25.66 37.64 -26 39 C-24.68 39 -23.36 39 -22 39 C-22.33 37.68 -22.66 36.36 -23 35 C-23.66 35 -24.32 35 -25 35 Z M-18 35 C-18 36.98 -18 38.96 -18 41 C-19.4540625 41.556875 -19.4540625 41.556875 -20.9375 42.125 C-24.21140475 43.69220225 -24.21140475 43.69220225 -25 46.75 C-25 50.48697056 -24.19869163 53.47443638 -23 57 C-20.03 57 -17.06 57 -14 57 C-14 49.74 -14 42.48 -14 35 C-15.32 35 -16.64 35 -18 35 Z M43 35 C42.67 36.32 42.34 37.64 42 39 C42.99 39.495 42.99 39.495 44 40 C44.66 39.67 45.32 39.34 46 39 C45.67 37.68 45.34 36.36 45 35 C44.34 35 43.68 35 43 35 Z M3 36 C3 37.65 3 39.3 3 41 C5.12438339 41.08078641 7.2496323 41.13909141 9.375 41.1875 C10.55835938 41.22230469 11.74171875 41.25710937 12.9609375 41.29296875 C13.96382812 41.19628906 14.96671875 41.09960938 16 41 C16.66 40.01 17.32 39.02 18 38 C16.11153817 35.67133771 16.11153817 35.67133771 12.9609375 35.8046875 C11.18589844 35.83949219 11.18589844 35.83949219 9.375 35.875 C7.59222656 35.90207031 7.59222656 35.90207031 5.7734375 35.9296875 C4.40058594 35.96449219 4.40058594 35.96449219 3 36 Z M3 52 C3 53.65 3 55.3 3 57 C5.64 57 8.28 57 11 57 C11 60.96 11 64.92 11 69 C1.76 69 -7.48 69 -17 69 C-16.67 69.66 -16.34 70.32 -16 71 C-13.03 71 -10.06 71 -7 71 C-6.649375 72.258125 -6.29875 73.51625 -5.9375 74.8125 C-4.67354387 78.05856916 -4.1412859 78.89953003 -1.1875 81 C5.56642905 83.21770805 14.51536254 83.21539208 21.25 80.9375 C24.85888232 78.39487837 25.06483727 76.20823228 26 72 C29.47823115 70.84058962 31.45895578 71.29179116 35 72 C35.66 71.01 36.32 70.02 37 69 C35.87980469 68.99742188 34.75960937 68.99484375 33.60546875 68.9921875 C32.13277242 68.95466657 30.66011689 68.91551912 29.1875 68.875 C28.44951172 68.87757812 27.71152344 68.88015625 26.95117188 68.8828125 C24.79296875 68.8046875 24.79296875 68.8046875 21 68 C19.0859375 65.24609375 19.0859375 65.24609375 18 62 C17.70996094 61.16855469 17.41992188 60.33710937 17.12109375 59.48046875 C16.66158689 57.93915146 16.20327244 56.39747822 15.74609375 54.85546875 C15.15908435 52.80328914 15.15908435 52.80328914 13 52 C11.29297265 51.93003986 9.58331997 51.91559846 7.875 51.9375 C6.96492188 51.94652344 6.05484375 51.95554688 5.1171875 51.96484375 C4.06917969 51.98224609 4.06917969 51.98224609 3 52 Z M-12 75 C-12.99 76.485 -12.99 76.485 -14 78 C-12.515 78.99 -12.515 78.99 -11 80 C-10.34 79.67 -9.68 79.34 -9 79 C-9.33 77.68 -9.66 76.36 -10 75 C-10.66 75 -11.32 75 -12 75 Z M30 75 C29.67 76.32 29.34 77.64 29 79 C30.32 79 31.64 79 33 79 C32.67 77.68 32.34 76.36 32 75 C31.34 75 30.68 75 30 75 Z " fill="#525252" transform="translate(38,0)"/>
</svg>
