<?xml version="1.0" encoding="UTF-8"?>
<svg version="1.1" xmlns="http://www.w3.org/2000/svg" width="100" height="100">
<path d="M0 0 C27.72 0 55.44 0 84 0 C84 27.72 84 55.44 84 84 C56.28 84 28.56 84 0 84 C0 56.28 0 28.56 0 0 Z M22 38 C22 39.98 22 41.96 22 44 C25.3 44 28.6 44 32 44 C32 54.56 32 65.12 32 76 C34.64 76 37.28 76 40 76 C40 65.44 40 54.88 40 44 C43.3 44 46.6 44 50 44 C50 42.02 50 40.04 50 38 C40.76 38 31.52 38 22 38 Z M55.125 40.9375 C52.69248485 44.44318361 51.99988189 46.49822829 52.28125 50.71875 C53.87230738 55.76862776 58.48660826 58.52246218 62.8671875 61.09765625 C64.21579082 61.79131585 65.60428105 62.40681945 67 63 C67 64.65 67 66.3 67 68 C64.5257021 69.23714895 63.28500667 68.95581362 60.5625 68.625 C59.78003906 68.53476563 58.99757813 68.44453125 58.19140625 68.3515625 C56 68 56 68 53 67 C53 69.31 53 71.62 53 74 C56.29092594 75.09697531 58.91112159 75.2371983 62.375 75.3125 C63.49648437 75.34988281 64.61796875 75.38726562 65.7734375 75.42578125 C69.65385586 74.91371636 71.23562425 73.70908823 74 71 C75.60859155 67.7828169 75.45804697 64.48924012 75 61 C72.4740827 56.27763288 68.62433973 54.55943555 63.92578125 52.40625 C62 51 62 51 61.16796875 48.40625 C61.11253906 47.6121875 61.05710937 46.818125 61 46 C62 45 62 45 64.72265625 44.90234375 C66.37587891 44.91974609 66.37587891 44.91974609 68.0625 44.9375 C69.16722656 44.94652344 70.27195312 44.95554687 71.41015625 44.96484375 C72.26480469 44.97644531 73.11945313 44.98804688 74 45 C74.042721 43.33388095 74.04063832 41.66617115 74 40 C72.08016787 38.08016787 68.87081238 38.69450483 66.3125 38.625 C60.38251923 38.5792972 60.38251923 38.5792972 55.125 40.9375 Z " fill="#525252" transform="translate(8,8)"/>
</svg>
