<?xml version="1.0" encoding="UTF-8" ?>
<svg version="1.1" xmlns="http://www.w3.org/2000/svg" width="478" height="438">
<path
        d="M0 0 C-4.91256225 6.07867551 -9.89804278 12.0801035 -15 18 C-19.3193676 23.01312741 -23.55097301 28.08537544 -27.72265625 33.22265625 C-30.74419944 36.90759143 -33.83035951 40.53568321 -36.91650391 44.16650391 C-39.79557843 47.55973475 -42.63211492 50.9827672 -45.4375 54.4375 C-49.39443418 59.30049424 -53.46435942 64.05700203 -57.55615234 68.80615234 C-61.35163367 73.22031766 -65.05277913 77.70333198 -68.72265625 82.22265625 C-71.74419944 85.90759143 -74.83035951 89.53568321 -77.91650391 93.16650391 C-80.79557843 96.55973475 -83.63211492 99.9827672 -86.4375 103.4375 C-90.39443418 108.30049424 -94.46435942 113.05700203 -98.55615234 117.80615234 C-102.35163367 122.22031766 -106.05277913 126.70333198 -109.72265625 131.22265625 C-112.74419944 134.90759143 -115.83035951 138.53568321 -118.91650391 142.16650391 C-121.79557843 145.55973475 -124.63211492 148.9827672 -127.4375 152.4375 C-131.39443418 157.30049424 -135.46435942 162.05700203 -139.55615234 166.80615234 C-143.35163367 171.22031766 -147.05277913 175.70333198 -150.72265625 180.22265625 C-153.74419944 183.90759143 -156.83035951 187.53568321 -159.91650391 191.16650391 C-162.79557843 194.55973475 -165.63211492 197.9827672 -168.4375 201.4375 C-172.39443418 206.30049424 -176.46435942 211.05700203 -180.55615234 215.80615234 C-184.35163367 220.22031766 -188.05277913 224.70333198 -191.72265625 229.22265625 C-194.74419944 232.90759143 -197.83035951 236.53568321 -200.91650391 240.16650391 C-203.79557843 243.55973475 -206.63211492 246.9827672 -209.4375 250.4375 C-213.39443418 255.30049424 -217.46435942 260.05700203 -221.55615234 264.80615234 C-225.34142929 269.20844992 -229.03417261 273.67803027 -232.69140625 278.1875 C-235.89492012 282.09025802 -239.17002003 285.93124844 -242.45922852 289.76196289 C-244.99470576 292.69826348 -244.99470576 292.69826348 -247 296 C-200.47 296 -153.94 296 -106 296 C-108.83854024 300.25781036 -111.26110823 303.54040666 -114.6875 307.1875 C-118.08920844 310.86811864 -121.35624239 314.5968267 -124.5 318.5 C-127.55348679 322.28460334 -130.70668301 325.92207537 -134 329.5 C-138.11255781 333.96851335 -141.96888182 338.58731127 -145.78125 343.3125 C-148.59697997 346.7231025 -151.55904562 349.98080356 -154.56640625 353.22265625 C-156.98805358 355.83635837 -156.98805358 355.83635837 -158.51431656 358.42507076 C-161.15835799 362.38266405 -163.22907318 365.46510647 -167.9101944 366.87899971 C-171.46727832 367.15042967 -174.89940721 367.10906894 -178.46386719 366.95727539 C-179.81542294 366.93644933 -181.16705798 366.92032458 -182.51872253 366.9085083 C-185.42330025 366.87448529 -188.32505035 366.81020976 -191.228508 366.72288704 C-195.85960707 366.5866717 -200.48931637 366.53646382 -205.12213135 366.49986267 C-217.47298245 366.38958901 -229.82163657 366.17839152 -242.16971719 365.89557582 C-252.60767743 365.65784472 -263.04355554 365.49311888 -273.484375 365.47265625 C-274.26202855 365.47097749 -275.03968209 365.46929874 -275.8409009 365.46756911 C-300.01071389 365.46360526 -319.86679328 368.17942481 -340.42507935 381.77153015 C-346.28028892 385.55896934 -352.73080465 388.27283469 -359.07387924 391.13133621 C-362.58525071 392.72542176 -366.06830093 394.37952727 -369.5546875 396.02734375 C-370.95788615 396.68759586 -372.36119231 397.34761958 -373.76464844 398.00732422 C-378.05479 400.02541931 -382.34385891 402.04578795 -386.6328125 404.06640625 C-403.9070105 412.20362982 -421.18218704 420.33957705 -438.50927734 428.36376953 C-441.04721358 429.55339386 -443.57032004 430.76150308 -446.08837891 431.99169922 C-446.77007645 432.32064682 -447.45177399 432.64959442 -448.15412903 432.98851013 C-449.47531218 433.62656029 -450.79281455 434.27230436 -452.10600281 434.926651 C-456.66250906 437.11249698 -456.66250906 437.11249698 -460 436 C-459.31035156 435.18917969 -458.62070312 434.37835938 -457.91015625 433.54296875 C-451.86370981 426.42275309 -445.89226756 419.24876081 -440 412 C-435.2202825 406.11991588 -430.40526403 400.27559389 -425.5 394.5 C-421.44999489 389.73078305 -417.45648144 384.92087884 -413.50390625 380.0703125 C-405.69208052 370.49138111 -397.84027163 360.94770048 -389.83251953 351.53173828 C-386.27089805 347.33811004 -382.78880483 343.08391578 -379.31640625 338.81640625 C-376.72212734 335.66214808 -374.08393735 332.5479702 -371.4375 329.4375 C-368.23260809 325.66911061 -365.07312306 321.87753972 -362 318 C-358.92687192 314.12245393 -355.76726614 310.33100139 -352.5625 306.5625 C-348.49031514 301.77332742 -344.47518393 296.94383037 -340.50390625 292.0703125 C-332.69208052 282.49138111 -324.84027163 272.94770048 -316.83251953 263.53173828 C-313.27089805 259.33811004 -309.78880483 255.08391578 -306.31640625 250.81640625 C-303.72212734 247.66214808 -301.08393735 244.5479702 -298.4375 241.4375 C-295.23260809 237.66911061 -292.07312306 233.87753972 -289 230 C-285.92687192 226.12245393 -282.76726614 222.33100139 -279.5625 218.5625 C-275.49031514 213.77332742 -271.47518393 208.94383037 -267.50390625 204.0703125 C-259.69208052 194.49138111 -251.84027163 184.94770048 -243.83251953 175.53173828 C-240.27208016 171.33950191 -236.79086359 167.08697567 -233.3203125 162.8203125 C-230.28123916 159.12635467 -227.18480397 155.48238011 -224.06835938 151.85351562 C-220.21560399 147.33829551 -216.65849851 142.7037838 -213 138 C-259.53 137.67 -306.06 137.34 -354 137 C-351.16145976 132.74218964 -348.73889177 129.45959334 -345.3125 125.8125 C-341.91079156 122.13188136 -338.64375761 118.4031733 -335.5 114.5 C-331.66280969 109.74404581 -327.60614899 105.24495199 -323.46875 100.75 C-320.27360498 97.19085112 -317.29041893 93.48034291 -314.2890625 89.7578125 C-311.17886535 86.01071491 -307.88351044 82.4514236 -304.5546875 78.8984375 C-302.043126 76.23132541 -302.043126 76.23132541 -300.68526936 73.77674675 C-298.33935492 70.05304462 -296.55612921 67.43375863 -292.19965172 66.2194252 C-288.68154718 65.98563894 -285.26783763 66.03854108 -281.74487305 66.18798828 C-280.40320474 66.21180594 -279.06145458 66.2313367 -277.71966553 66.24693298 C-274.83218487 66.28798944 -271.9470385 66.35594477 -269.06061363 66.44397354 C-264.44903849 66.58101363 -259.83858986 66.636452 -255.22529602 66.67819214 C-242.92156526 66.80054869 -230.61951163 66.99614337 -218.3189851 67.30501914 C-207.92511181 67.56580503 -197.53408884 67.74428567 -187.13671875 67.7578125 C-186.35859754 67.75890424 -185.58047633 67.75999598 -184.77877569 67.7611208 C-158.29928156 67.73701015 -137.19706536 63.21101421 -114.20118713 49.4080658 C-107.80016517 45.62791411 -100.94386572 42.80430364 -94.11258507 39.90356827 C-90.46304996 38.34263509 -86.84027945 36.72139789 -83.21484375 35.10546875 C-82.38902802 34.73884125 -81.56321228 34.37221375 -80.71237183 33.99447632 C-72.21704483 30.21335829 -63.74613493 26.37832241 -55.27590942 22.54138184 C-52.59316558 21.3263882 -49.90982145 20.11272974 -47.22631836 18.89941406 C-39.86120237 15.56812874 -32.49775492 12.23391284 -25.15248108 8.85905457 C-22.4212002 7.60543217 -19.68674292 6.35885192 -16.95162964 5.11361694 C-15.11046402 4.27192679 -13.27403024 3.41991007 -11.43774414 2.56762695 C-9.81533813 1.83032349 -9.81533813 1.83032349 -8.16015625 1.078125 C-7.22824463 0.64918945 -6.29633301 0.22025391 -5.33618164 -0.22167969 C-3 -1 -3 -1 0 0 Z "
        fill="#525252"
        transform="translate(469,1)"
    />
<path
        d="M0 0 C12.54 0 25.08 0 38 0 C38 98.67 38 197.34 38 299 C-10.51 299 -59.02 299 -109 299 C-107.07036391 294.17590976 -104.94647294 291.48390345 -101.4375 287.875 C-96.76971956 282.95554951 -92.39348243 277.90341687 -88.14453125 272.61328125 C-86.00125044 270.00152377 -83.7761967 267.49634698 -81.5 265 C-78.40444804 261.60401318 -75.44848793 258.13828469 -72.5625 254.5625 C-68.6629166 249.74416658 -64.56632425 245.15158425 -60.37109375 240.58984375 C-57.6235005 237.58876579 -54.94321378 234.53452883 -52.27734375 231.4609375 C-51.54167701 230.61953273 -50.79030613 229.79030613 -50 229 C-43.73 229 -37.46 229 -31 229 C-31 177.52 -31 126.04 -31 73 C-40.24 73 -49.48 73 -59 73 C-57.05292541 69.10585083 -54.75940509 66.18257077 -51.9375 62.9375 C-50.931578 61.76493478 -49.92637879 60.59174914 -48.921875 59.41796875 C-48.42365234 58.83708496 -47.92542969 58.25620117 -47.41210938 57.65771484 C-44.72102895 54.49857997 -42.11282706 51.27219871 -39.4921875 48.0546875 C-36.44396312 44.31846264 -33.37895252 40.5962679 -30.3125 36.875 C-29.71953125 36.15521973 -29.1265625 35.43543945 -28.515625 34.69384766 C-26.05981424 31.71301512 -23.60362433 28.7324951 -21.14746094 25.75195312 C-19.32732221 23.54309373 -17.5074076 21.33404982 -15.6875 19.125 C-14.88082886 18.14635986 -14.88082886 18.14635986 -14.05786133 17.14794922 C-9.35805665 11.44313243 -4.68062517 5.7207641 0 0 Z "
        fill="#525252"
        transform="translate(440,68)"
    />
<path
        d="M0 0 C47.52 0 95.04 0 144 0 C142.09021455 4.77446362 139.90772276 7.70984599 136.5625 11.4375 C132.39150564 16.18640322 128.36241282 20.99680505 124.5 26 C120.25109207 31.48676055 115.81779312 36.77860707 111.27612305 42.0246582 C107.73411937 46.12199808 104.30974356 50.29475815 100.94921875 54.54296875 C98.69758861 57.38119592 96.41518189 60.19279771 94.125 63 C93.38507813 63.9075 92.64515625 64.815 91.8828125 65.75 C90 68 90 68 88 70 C81.73 70 75.46 70 69 70 C69 122.47 69 174.94 69 229 C78.24 229 87.48 229 97 229 C95.18929768 232.62140464 93.65071878 234.65787249 90.9375 237.5625 C87.68892508 241.10168226 84.57531784 244.69560168 81.5625 248.4375 C77.70174863 253.211403 73.62562925 257.73388428 69.46875 262.25 C67.05621896 264.93737634 64.7674379 267.68965444 62.5 270.5 C58.67382917 275.24229624 54.63014637 279.72954369 50.50390625 284.2109375 C47.10518671 287.9967187 43.9075747 291.92135722 40.71484375 295.8828125 C39 298 39 298 38 299 C25.46 299 12.92 299 0 299 C0 200.33 0 101.66 0 0 Z "
        fill="#525252"
        transform="translate(0,68)"
    />
</svg>
